<svg xmlns="http://www.w3.org/2000/svg" xmlns:xlink="http://www.w3.org/1999/xlink">
  <symbol viewBox="0 0 1792 1408" aria-labelledby="email-icon" id="email"><title id="email-icon">email icon</title><path d="M1792 454v794q0 66-47 113t-113 47H160q-66 0-113-47T0 1248V454q44 49 101 87 362 246 497 345 57 42 92.5 65.5t94.5 48 110 24.5h2q51 0 110-24.5t94.5-48T1194 886q170-123 498-345 57-39 100-87zm0-294q0 79-49 151t-122 123q-376 261-468 325-10 7-42.5 30.5t-54 38-52 32.5-57.5 27-50 9h-2q-23 0-50-9t-57.5-27-52-32.5-54-38T639 759q-91-64-262-182.5T172 434q-62-42-117-115.5T0 182q0-78 41.5-130T160 0h1472q65 0 112.5 47t47.5 113z"/></symbol>
  <symbol viewBox="0 0 1536 1536" aria-labelledby="linkedin-icon" id="linkedin"><title id="linkedin-icon">linkedin icon</title><path d="M237 1286h231V592H237v694zm246-908q-1-52-36-86t-93-34-94.5 34-36.5 86q0 51 35.5 85.5T351 498h1q59 0 95-34.5t36-85.5zm585 908h231V888q0-154-73-233t-193-79q-136 0-209 117h2V592H595q3 66 0 694h231V898q0-38 7-56 15-35 45-59.5t74-24.5q116 0 116 157v371zm468-998v960q0 119-84.5 203.5T1248 1536H288q-119 0-203.5-84.5T0 1248V288Q0 169 84.5 84.5T288 0h960q119 0 203.5 84.5T1536 288z"/></symbol>
  <symbol viewBox="0 0 1536 1536" aria-labelledby="twitter-icon" id="twitter"><title id="twitter icon">twitter icon</title><path d="M1280 482q-56 25-121 34 68-40 93-117-65 38-134 51-61-66-153-66-87 0-148.5 61.5T755 594q0 29 5 48-129-7-242-65T326 422q-29 50-29 106 0 114 91 175-47-1-100-26v2q0 75 50 133.5T461 885q-29 8-51 8-13 0-39-4 21 63 74.5 104t121.5 42q-116 90-261 90-26 0-50-3 148 94 322 94 112 0 210-35.5t168-95 120.5-137 75-162T1176 618q0-18-1-27 63-45 105-109zm256-194v960q0 119-84.5 203.5T1248 1536H288q-119 0-203.5-84.5T0 1248V288Q0 169 84.5 84.5T288 0h960q119 0 203.5 84.5T1536 288z"/></symbol>
</svg>
